# AST/ASF file generated using VICON BodyLanguage
# -----------------------------------------------
:version 1.10
:name VICON
:units
  mass 1.0
  length 0.45
  angle deg
:documentation
   .ast/.asf automatically generated from VICON data using
   VICON BodyBuilder and BodyLanguage model FoxedUp or BRILLIANT.MOD
:root
   order TX TY TZ RX RY RZ
   axis XYZ
   position 0 0 0  
   orientation 0 0 0 
:bonedata
  begin
     id 1 
     name lhipjoint
     direction 0.570549 -0.739093 0.358072 
     length 2.41801 
     axis 0 0 0  XYZ
  end
  begin
     id 2 
     name lfemur
     direction 0.34202 -0.939693 0  
     length 7.44434  
     axis 0 0 20  XYZ
    dof rx ry rz
    limits (-160.0 20.0)
           (-70.0 70.0)
           (-60.0 70.0)
  end
  begin
     id 3 
     name ltibia
     direction 0.34202 -0.939693 0   
     length 7.60047   
     axis 0 0 20   XYZ
    dof rx
    limits (-10.0 170.0)
  end
  begin
     id 4 
     name lfoot
     direction 0.0909041 -0.249757 0.964032   
     length 2.03437   
     axis -90 7.62852e-016 20   XYZ
    dof rx rz
    limits (-45.0 90.0)
           (-70.0 20.0)
  end
  begin
     id 5 
     name ltoes
     direction 1.53547e-011 -4.2174e-011 1   
     length 1.02054   
     axis -90 7.62852e-016 20   XYZ
    dof rx
    limits (-90.0 20.0)
  end
  begin
     id 6 
     name rhipjoint
     direction -0.558096 -0.746754 0.361784   
     length 2.3932  
     axis 0 0 0  XYZ 
  end
  begin
     id 7 
     name rfemur
     direction -0.34202 -0.939693 0   
     length 7.3886   
     axis 0 0 -20   XYZ
    dof rx ry rz
    limits (-160.0 20.0)
           (-70.0 70.0)
           (-70.0 60.0)
  end
  begin
     id 8 
     name rtibia
     direction -0.34202 -0.939693 0   
     length 7.4839   
     axis 0 0 -20   XYZ
    dof rx
    limits (-10.0 170.0)
 end
 begin
     id 9 
     name rfoot
     direction -0.114619 -0.314914 0.942174   
     length 2.25127  
     axis -90 -7.62852e-016 -20   XYZ
    dof rx rz
    limits (-45.0 90.0)
           (-20.0 70.0)
  end
  begin
     id 10 
     name rtoes
     direction -1.53518e-011 -4.21881e-011 1   
     length 1.11821   
     axis -90 -7.62852e-016 -20   XYZ
    dof rx
    limits (-90.0 20.0)
  end
  begin
     id 11 
     name lowerback
     direction -0.00902269 0.996426 -0.0839821   
     length 2.25052   
     axis 0 0 0   XYZ
    dof rx ry rz
    limits (-20.0 45.0)
           (-30.0 30.0)
           (-30.0 30.0)
  end
  begin
     id 12 
     name upperback
     direction 0.0370973 0.999169 -0.0168941   
     length 2.24876   
     axis 0 0 0   XYZ
    dof rx ry rz
    limits (-20.0 45.0)
           (-30.0 30.0)
           (-30.0 30.0)
  end
  begin
     id 13 
     name thorax
     direction 0.0402726 0.998931 0.0227027   
     length 2.26408   
     axis 0 0 0   XYZ
    dof rx ry rz
    limits (-20.0 45.0)
           (-30.0 30.0)
           (-30.0 30.0)
  end
  begin
     id 14 
     name lowerneck
     direction -0.0733697 0.98508 0.155675   
     length 1.58204   
     axis 0 0 0   XYZ
    dof rx ry rz
    limits (-20.0 45.0)
           (-30.0 30.0)
           (-30.0 30.0)
  end
  begin
     id 15 
     name upperneck
     direction 0.0426554 0.993501 -0.105526   
     length 1.61222   
     axis 0 0 0   XYZ
    dof rx ry rz
    limits (-20.0 45.0)
           (-30.0 30.0)
           (-30.0 30.0)
  end
  begin
     id 16
     name head
     direction 0.020792 0.998384 -0.0528868  
     length 1.61527  
     axis 0 0 0   XYZ
    dof rx ry rz
    limits (-20.0 45.0)
           (-30.0 30.0)
           (-30.0 30.0)
  end
  begin
     id 17 
     name lclavicle
     direction 0.967109 0.155462 -0.201325  
     length 3.59357  
     axis 0 0 0   XYZ
    dof ry rz
    limits (-20.0 10.0)
           (0.0 20.0)
  end
  begin
     id 18 
     name lhumerus
     direction 1 -4.48968e-011 2.38195e-027   
     length 5.38154   
     axis 180 -30 -90   XYZ
    dof rx ry rz
    limits (-60.0 90.0)
           (-90.0 90.0)
           (-90.0 90.0)
  end
  begin
     id 19
     name lradius
     direction 1 -4.48961e-011 4.85371e-027   
     length 3.33312   
     axis 180 -30 -90   XYZ
    dof rx
    limits (-10.0 170.0)
  end
  begin
     id 20
     name lwrist
     direction 1 -4.48961e-011 4.76515e-027   
     length 1.66656   
     axis -3.27502e-015 90 90   XYZ
    dof ry
    limits (-180.0 0.0)
 end
  begin
     id 21 
     name lhand
     direction 1 -4.48951e-011 9.53074e-027   
     length 0.710789   
     axis -6.08098e-015 90 90   XYZ
    dof rx rz
    limits (-90.0 90.0)
           (-45.0 45.0)
  end
  begin
     id 22 
     name lfingers
     direction 1 -4.48953e-011 1.90613e-026   
     length 0.573057   
     axis -1.21619e-014 90 90   XYZ
    dof rx
    limits (0.0 90.0)
  end
  begin
     id 23
     name lthumb
     direction 0.707107 -6.34973e-011 0.707107   
     length 0.822798   
     axis -90 45 -9.86923e-015   XYZ
    dof rx rz
    limits (-45.0 45.0)
           (-45.0 45.0)
  end
  begin
     id 24 
     name rclavicle
     direction -0.9585 0.265289 -0.104398   
     length 3.42039  
     axis 0 0 0   XYZ 
    dof ry rz
    limits (-10.0 20.0)
           (-20.0 0.0)
  end
  begin
     id 25 
     name rhumerus
     direction -1 -4.48977e-011 2.21478e-027  
     length 5.16954   
     axis 180 30 90   XYZ
    dof rx ry rz
    limits (-90.0 60.0)
           (-90.0 90.0)
           (-90.0 90.0)
  end
  begin
     id 26 
     name rradius
     direction -1 -4.48967e-011 5.63677e-027   
     length 3.38287   
     axis 180 30 90   XYZ
    dof rx
    limits (-10.0 170.0)
  end
  begin
     id 27 
     name rwrist
     direction -1 -4.48967e-011 4.76501e-027   
     length 1.69144   
     axis -3.27502e-015 -90 -90   XYZ
    dof ry
    limits (-180.0 0.0)
  end
  begin
     id 28
     name rhand
     direction -1 -4.48902e-011 9.53292e-027   
     length 0.817967   
     axis -6.08098e-015 -90 -90   XYZ
    dof rx rz
    limits (-90.0 90.0)
           (-45.0 45.0)
  end
  begin
     id 29
     name rfingers
     direction -1 -4.49012e-011 1.90561e-026   
     length 0.659466   
     axis -1.21619e-014 -90 -90   XYZ
    dof rx
    limits (0.0 90.0)
  end
  begin
     id 30
     name rthumb
     direction -0.707107 -6.34944e-011 0.707107   
     length 0.946865   
     axis -90 -45 9.86923e-015   XYZ
    dof rx rz
    limits (-45.0 45.0)
           (-45.0 45.0)
  end
:hierarchy
  begin
    root lhipjoint rhipjoint lowerback
    lhipjoint lfemur
    lfemur ltibia
    ltibia lfoot
    lfoot ltoes
    rhipjoint rfemur
    rfemur rtibia
    rtibia rfoot
    rfoot rtoes
    lowerback upperback
    upperback thorax
    thorax lowerneck lclavicle rclavicle
    lowerneck upperneck
    upperneck head
    lclavicle lhumerus
    lhumerus lradius
    lradius lwrist
    lwrist lhand lthumb
    lhand lfingers
    rclavicle rhumerus
    rhumerus rradius
    rradius rwrist
    rwrist rhand rthumb
    rhand rfingers
  end

#!OML:ASF F:\twosubjects\two\wednesday\Session 1\Justin1.ASF
:FULLY-SPECIFIED
:DEGREES
225
root 6.26598 15.6843 -8.09695 -478.338 -70.7502 -238.635
lowerback 10.8113 -3.25887 -9.69361
upperback 2.72527 -5.52183 -0.0988714
thorax -2.27491 -2.79171 5.98704
lowerneck -12.5612 -8.78507 -12.8911
upperneck 7.9256 -11.8418 17.0433
head 6.31754 -5.19403 6.36293
rclavicle -1.94809e-014 2.22639e-014
rhumerus -38.2666 25.5681 -36.7391
rradius 103.744
rwrist -56.9047
rhand -20.9959 16.7648
rfingers 7.12502
rthumb 5.37835 -13.1469
lclavicle -1.94809e-014 2.22639e-014
lhumerus -32.157 5.48121 60.3826
lradius 74.8205
lwrist 1.7158
lhand -12.0323 37.3469
lfingers 7.12502
lthumb 14.0259 66.8537
rfemur -49.3685 -22.4939 27.2785
rtibia 60.8161
rfoot -25.4322 -14.4561
rtoes 33.4412
lfemur 4.17887 13.7341 -26.9874
ltibia 40.0007
lfoot -30.4813 7.37812
ltoes -38.3028
226
root 6.08657 15.6448 -8.06922 -484.501 -70.6953 -231.921
lowerback 10.3534 -3.2946 -8.30931
upperback 2.61495 -5.34523 0.42185
thorax -2.24806 -2.6988 5.71686
lowerneck -12.1566 -8.68324 -13.7536
upperneck 7.64206 -11.6314 17.5579
head 6.21637 -5.11597 6.71832
rclavicle -5.12864e-014 6.36111e-015
rhumerus -38.1826 24.9615 -36.7863
rradius 103.37
rwrist -57.7081
rhand -16.7073 16.017
rfingers 7.12502
rthumb 9.51777 -13.7481
lclavicle -5.12864e-014 6.36111e-015
lhumerus -32.7366 6.59519 61.5031
lradius 73.2514
lwrist 2.31692
lhand -12.391 38.0784
lfingers 7.12502
lthumb 13.6802 67.6088
rfemur -49.507 -21.2204 28.6767
rtibia 61.8076
rfoot -25.2279 -15.2862
rtoes 28.0074
lfemur 3.62755 14.662 -25.7336
ltibia 41.9411
lfoot -29.7796 6.04055
ltoes -38.7503
227
root 5.90689 15.6167 -8.04856 -490.474 -69.9264 -225.747
lowerback 9.29053 -3.45434 -8.09988
upperback 3.43774 -5.41751 1.20856
thorax -0.727504 -2.85201 6.29753
lowerneck -12.9263 -8.46021 -14.5369
upperneck 7.12462 -11.0073 17.6098
head 6.13451 -4.80367 6.92728
rclavicle 2.14687e-014 -2.8625e-014
rhumerus -35.6582 24.0534 -35.9253
rradius 102.59
rwrist -58.4436
rhand -13.0208 15.0124
rfingers 7.12502
rthumb 13.0731 -14.5579
lclavicle 2.14687e-014 -2.8625e-014
lhumerus -32.5687 9.1501 62.6926
lradius 71.6084
lwrist 3.24043
lhand -12.4398 38.3503
lfingers 7.12502
lthumb 13.6332 67.8838
rfemur -49.2105 -19.7169 29.1846
rtibia 62.9049
rfoot -25.5793 -15.1508
rtoes 26.6654
lfemur 3.28981 15.5239 -24.9148
ltibia 44.2322
lfoot -28.5013 4.16376
ltoes -38.119
228
root 5.72849 15.5991 -8.05566 -495.183 -68.5307 -221.014
lowerback 10.4244 -3.30263 -7.26361
upperback 2.49781 -5.23183 0.99988
thorax -2.46843 -2.63081 5.74261
lowerneck -12.2645 -8.54689 -15.4018
upperneck 7.83035 -11.3021 18.457
head 6.4001 -4.94981 7.34695
rclavicle 3.81667e-014 7.95139e-015
rhumerus -36.4187 24.6467 -37.0664
rradius 102.04
rwrist -58.8831
rhand -12.9191 14.8344
rfingers 7.12502
rthumb 13.1712 -14.7296
lclavicle 3.81667e-014 7.95139e-015
lhumerus -34.5549 8.69017 62.9148
lradius 70.1784
lwrist 4.45143
lhand -12.5608 38.323
lfingers 7.12502
lthumb 13.5165 67.8643
rfemur -48.4806 -17.8429 28.7938
rtibia 63.7479
rfoot -26.5311 -13.8969
rtoes 29.8133
lfemur 2.86763 16.4754 -24.4804
ltibia 46.9677
lfoot -26.4069 2.4435
ltoes -39.1985
229
root 5.55333 15.5954 -8.07725 -498.828 -67.397 -217.419
lowerback 9.86034 -3.50023 -7.45965
upperback 3.09582 -5.46683 1.37137
thorax -1.43865 -2.82689 6.1826
lowerneck -13.176 -8.4078 -15.0134
upperneck 7.706 -10.9689 18.0312
head 6.40746 -4.75713 7.15607
rclavicle 1.43125e-014 6.36111e-015
rhumerus -34.5696 23.7224 -37.1377
rradius 101.203
rwrist -58.8834
rhand -12.0691 14.7521
rfingers 7.12502
rthumb 13.9905 -14.7571
lclavicle 1.43125e-014 6.36111e-015
lhumerus -34.6263 10.5542 63.7765
lradius 68.4144
lwrist 5.13152
lhand -13.0123 38.2168
lfingers 7.12502
lthumb 13.0813 67.7866
rfemur -47.4052 -15.9909 28.3062
rtibia 64.2761
rfoot -27.9384 -12.153
rtoes 34.5705
lfemur 2.32424 17.1225 -23.7374
ltibia 49.8261
lfoot -23.3279 0.038309
ltoes -39.4987
230
root 5.3872 15.5886 -8.05734 -501.837 -65.9686 -214.428
lowerback 10.0859 -3.4726 -7.02583
upperback 3.08708 -5.40906 1.34741
thorax -1.62611 -2.78895 5.93061
lowerneck -13.0481 -8.25346 -14.203
upperneck 7.44949 -10.7689 17.2678
head 6.17258 -4.6891 6.78724
rclavicle 8.22969e-014 -3.33958e-014
rhumerus -34.5314 22.9783 -37.8378
rradius 100.699
rwrist -59.0977
rhand -11.4148 15.1258
rfingers 7.12502
rthumb 14.6209 -14.3388
lclavicle 8.22969e-014 -3.33958e-014
lhumerus -34.8823 11.1395 64.4837
lradius 66.4714
lwrist 5.87232
lhand -13.372 37.9587
lfingers 7.12502
lthumb 12.7346 67.5503
rfemur -46.5225 -14.6414 27.968
rtibia 64.4068
rfoot -28.3483 -11.9327
rtoes 34.1132
lfemur 1.22329 17.7857 -23.48
ltibia 52.8911
lfoot -18.8896 -2.71602
ltoes -37.0927
231
root 5.21747 15.5892 -8.10922 -503.951 -64.9012 -212.907
lowerback 10.8352 -3.47399 -7.44529
upperback 2.99406 -5.51624 1.42638
thorax -2.06933 -2.82339 6.32895
lowerneck -12.4632 -8.20461 -14.1011
upperneck 7.21018 -10.7168 16.9881
head 5.96481 -4.70692 6.69617
rclavicle -3.73715e-014 3.97569e-014
rhumerus -34.4429 23.0055 -38.424
rradius 100.06
rwrist -59.6393
rhand -11.3788 15.2876
rfingers 7.12502
rthumb 14.6556 -14.1745
lclavicle -3.73715e-014 3.97569e-014
lhumerus -35.3434 11.0883 65.0948
lradius 64.479
lwrist 6.74945
lhand -13.6844 37.7765
lfingers 7.12502
lthumb 12.4334 67.3867
rfemur -44.7206 -13.9768 27.7276
rtibia 64.1555
rfoot -29.0192 -12.6621
rtoes 31.9899
lfemur 0.63477 18.1027 -22.602
ltibia 55.9516
lfoot -12.9537 -5.9758
ltoes -33.4388
232
root 5.03408 15.6219 -8.15236 -507.275 -64.0463 -209.856
lowerback 11.1831 -3.61067 -7.05737
upperback 2.99943 -5.67563 1.82369
thorax -2.22583 -2.90141 6.57781
lowerneck -12.4981 -8.13196 -14.2478
upperneck 7.42524 -10.5253 16.4658
head 5.97791 -4.63627 6.57075
rclavicle -2.74323e-014 4.77083e-015
rhumerus -33.53 23.1997 -38.5773
rradius 99.3175
rwrist -59.6466
rhand -11.0529 14.5586
rfingers 7.12502
rthumb 14.9695 -14.8803
lclavicle -2.74323e-014 4.77083e-015
lhumerus -35.7666 11.394 65.8764
lradius 62.4422
lwrist 7.34947
lhand -13.8469 37.8087
lfingers 7.12502
lthumb 12.2767 67.4284
rfemur -42.924 -13.064 27.9782
rtibia 63.7337
rfoot -30.379 -11.4478
rtoes 35.3219
lfemur -0.273485 18.1778 -21.2004
ltibia 58.9902
lfoot -6.80528 -8.89864
ltoes -28.4191
233
root 4.84326 15.653 -8.20325 -511.131 -63.4542 -205.993
lowerback 11.1184 -3.83683 -6.12774
upperback 3.09478 -5.86175 2.4218
thorax -2.09142 -3.01256 6.69488
lowerneck -13.0834 -8.05028 -14.3133
upperneck 8.15028 -10.2911 15.7291
head 6.2192 -4.52419 6.35458
rclavicle 8.94531e-014 3.18055e-015
rhumerus -32.8327 23.1189 -38.6468
rradius 98.7708
rwrist -59.1893
rhand -10.801 13.9403
rfingers 7.12502
rthumb 15.2122 -15.4804
lclavicle 8.94531e-014 3.18055e-015
lhumerus -35.9878 11.8139 66.8126
lradius 60.3647
lwrist 7.72884
lhand -13.7644 38.014
lfingers 7.12502
lthumb 12.3562 67.6289
rfemur -41.2137 -12.0152 28.8714
rtibia 63.2201
rfoot -31.5168 -10.4472
rtoes 37.9437
lfemur -1.41175 18.1991 -19.1999
ltibia 61.956
lfoot -2.31615 -11.7987
ltoes -22.6772
234
root 4.6757 15.6595 -8.24468 -514.044 -62.4138 -203.102
lowerback 11.0304 -3.94329 -5.74761
upperback 3.3495 -5.96742 2.95701
thorax -1.73968 -3.10352 7.03404
lowerneck -13.6855 -7.99563 -14.3064
upperneck 8.28204 -10.0375 15.0506
head 6.27911 -4.40974 6.14489
rclavicle -3.97569e-015 -1.59028e-015
rhumerus -32.1157 22.8029 -38.5579
rradius 98.3107
rwrist -58.5447
rhand -11.0651 14.1329
rfingers 7.12502
rthumb 14.9578 -15.307
lclavicle -3.97569e-015 -1.59028e-015
lhumerus -35.6922 12.3611 67.8214
lradius 58.2605
lwrist 7.88319
lhand -13.1569 38.2619
lfingers 7.12502
lthumb 12.942 67.8405
rfemur -39.8163 -10.936 29.4856
rtibia 62.78
rfoot -31.8373 -10.6809
rtoes 36.8239
lfemur -2.80111 18.2861 -17.8106
ltibia 65.0036
lfoot 0.409185 -14.6312
ltoes -17.2764
235
root 4.5274 15.6609 -8.27574 -515.917 -60.8974 -201.318
lowerback 11.0047 -3.90934 -5.95534
upperback 3.66318 -5.96582 3.33368
thorax -1.33153 -3.1495 7.53026
lowerneck -14.0675 -7.98286 -14.1899
upperneck 7.73035 -9.81377 14.3275
head 6.08626 -4.32826 5.9011
rclavicle 5.1684e-014 3.18055e-015
rhumerus -30.9324 22.6199 -38.3228
rradius 97.782
rwrist -57.9299
rhand -11.4962 14.0605
rfingers 7.12502
rthumb 14.5425 -15.4098
lclavicle 5.1684e-014 3.18055e-015
lhumerus -35.0721 12.6321 68.7045
lradius 56.2593
lwrist 8.01355
lhand -12.1819 38.2731
lfingers 7.12502
lthumb 13.8817 67.7898
rfemur -38.6354 -9.45326 29.4555
rtibia 62.4413
rfoot -31.9431 -10.7774
rtoes 35.9591
lfemur -4.32004 18.0551 -17.2676
ltibia 68.0824
lfoot 2.48141 -16.4228
ltoes -8.87565
